<?xml version="1.0" standalone="no"?>
<!DOCTYPE svg PUBLIC "-//W3C//DTD SVG 20010904//EN"
 "http://www.w3.org/TR/2001/REC-SVG-20010904/DTD/svg10.dtd">
<svg version="1.0" xmlns="http://www.w3.org/2000/svg"
 width="1280.000000pt" height="640.000000pt" viewBox="0 0 1280.000000 640.000000"
 preserveAspectRatio="xMidYMid meet">
<metadata>
Created by potrace 1.15, written by Peter Selinger 2001-2017
</metadata>
<g transform="translate(0.000000,640.000000) scale(0.100000,-0.100000)"
fill="#000000" stroke="none">
<path d="M7987 5505 c-60 -45 -155 -115 -212 -154 l-103 -71 -248 17 c-349 23
-1159 23 -1534 0 -607 -38 -779 -55 -1014 -103 -173 -35 -246 -59 -391 -128
-378 -181 -882 -484 -1205 -724 -172 -128 -194 -136 -425 -143 -279 -8 -876
-61 -1255 -110 -545 -70 -1034 -186 -1307 -309 -67 -30 -73 -35 -94 -83 -13
-32 -23 -78 -25 -117 -2 -45 -13 -90 -34 -139 -16 -41 -39 -106 -51 -145 -11
-39 -29 -80 -39 -91 -47 -51 -52 -83 -41 -288 14 -270 15 -434 1 -490 -23 -93
31 -221 121 -287 47 -34 138 -70 175 -70 55 0 235 -43 362 -86 157 -54 233
-65 262 -39 15 14 29 16 78 10 l59 -7 7 -91 c23 -301 143 -539 361 -713 538
-431 1339 -179 1530 483 29 99 42 232 35 340 l-5 72 47 11 c26 5 65 12 85 16
l38 6 13 -46 c16 -62 39 -82 109 -96 61 -13 232 -7 291 9 119 34 834 38 2292
11 1362 -25 1924 -41 2290 -66 134 -9 276 -13 330 -10 52 3 149 9 216 12 l121
6 -5 -85 c-6 -113 20 -267 64 -382 110 -284 355 -505 649 -585 102 -28 295
-38 403 -20 105 17 250 70 346 127 101 61 238 194 304 295 120 185 179 425
153 627 -6 47 -10 85 -8 87 1 1 32 5 70 9 55 6 67 5 67 -7 0 -21 32 -47 66
-54 23 -4 59 8 161 55 128 58 136 60 290 80 409 53 558 73 676 90 116 17 131
17 170 3 26 -9 79 -16 137 -16 86 -1 101 2 149 27 29 15 63 27 75 27 26 0 119
45 136 65 21 25 72 266 67 318 -6 70 -19 78 -126 83 -50 2 -109 11 -130 20
-38 15 -39 17 -34 52 3 20 14 57 24 81 26 60 42 215 35 337 -7 125 -7 157 0
274 6 105 -6 185 -35 222 -19 24 -64 224 -55 240 10 15 -23 54 -59 71 -35 17
-353 22 -3028 43 l-847 7 -5 326 c-6 362 -12 417 -64 609 -33 122 -41 138 -81
183 -31 35 -69 61 -127 90 -78 37 -93 41 -243 56 -154 16 -161 18 -172 42 -9
19 -8 26 2 32 7 4 58 40 114 81 210 153 207 151 182 176 -24 24 -54 10 -161
-73z m-187 -226 c0 -5 -12 -9 -27 -9 -27 1 -27 1 -9 15 19 14 36 12 36 -6z
m734 -1481 c-2 -35 -8 -151 -14 -258 -12 -218 -31 -430 -60 -690 -24 -206 -79
-592 -85 -599 -7 -7 -6 5 9 125 8 60 26 213 40 339 23 210 36 356 81 895 16
188 23 250 29 250 2 0 2 -28 0 -62z"/>
</g>
</svg>
