<?xml version="1.0" standalone="no"?>
<!DOCTYPE svg PUBLIC "-//W3C//DTD SVG 20010904//EN"
 "http://www.w3.org/TR/2001/REC-SVG-20010904/DTD/svg10.dtd">
<svg version="1.0" xmlns="http://www.w3.org/2000/svg"
 viewBox="0 0 2600.000000 2604.000000"
 preserveAspectRatio="xMidYMid meet">
<metadata>
Created by potrace 1.13, written by Peter Selinger 2001-2015
</metadata>
<g transform="translate(0.000000,2604.000000) scale(0.100000,-0.100000)"
fill="#000000" stroke="none">
<path d="M8600 18553 c-2643 -56 -4383 -284 -4927 -646 -120 -80 -112 -67
-236 -382 -254 -641 -488 -1336 -690 -2050 l-34 -120 -179 -3 -179 -2 46 47
c54 56 71 85 63 107 -17 46 -144 27 -309 -45 -111 -48 -119 -50 -160 -40 -62
15 -131 14 -165 -4 -35 -18 -34 -11 -14 -87 11 -43 12 -64 5 -71 -14 -14 -14
-52 -1 -76 5 -10 120 -107 254 -216 l246 -197 107 -14 c60 -7 113 -13 119 -14
7 0 0 -45 -18 -122 -52 -228 -136 -652 -177 -898 -107 -642 -151 -1113 -156
-1687 -3 -294 -6 -356 -19 -375 -23 -35 -46 -105 -57 -172 -16 -97 11 -194 79
-279 71 -89 46 -294 -50 -403 -27 -30 -32 -50 -68 -266 -21 -128 -45 -291 -51
-361 -13 -124 -12 -136 20 -390 18 -144 35 -298 38 -342 5 -72 10 -87 49 -150
58 -95 157 -303 188 -396 22 -67 34 -124 52 -256 4 -31 6 -31 92 -47 238 -43
487 -62 1006 -77 l400 -12 59 -35 59 -36 550 -51 c408 -38 566 -49 616 -44 37
4 175 13 307 20 469 23 979 -28 1161 -116 39 -19 98 -59 131 -88 174 -156 335
-252 531 -321 413 -144 824 -49 1161 268 l53 51 522 17 c286 9 690 21 896 27
210 6 590 26 865 46 270 19 499 35 511 35 17 0 23 -10 34 -57 59 -266 214
-483 420 -586 112 -56 210 -82 358 -97 59 -5 132 -15 162 -20 30 -6 116 -10
191 -11 450 -1 815 215 1058 627 80 136 164 349 211 536 12 46 25 86 28 89 4
4 85 -22 181 -57 l174 -63 2774 371 c1525 204 2775 369 2778 367 2 -3 11 -47
19 -100 41 -253 135 -416 260 -448 31 -8 266 -11 773 -11 712 0 729 1 761 20
143 87 296 368 392 715 9 36 26 51 156 148 80 60 148 106 151 103 3 -3 11 -69
18 -146 7 -78 15 -143 17 -145 4 -4 473 -75 496 -75 16 0 21 26 42 216 l24
216 94 55 c311 183 643 301 911 324 68 6 136 15 150 21 103 39 184 179 227
390 29 144 27 466 -10 1934 -20 770 -36 1515 -36 1655 0 959 -72 1686 -183
1868 -11 19 -34 73 -49 120 -38 113 -80 184 -147 252 -77 76 -140 104 -281
123 -63 8 -3116 449 -6785 980 l-6669 966 -641 -2 c-352 -1 -692 -3 -755 -5z
m1306 -464 c60 -6 143 -17 184 -25 51 -9 12104 -1611 13403 -1780 45 -6 50
-10 72 -53 144 -284 228 -927 211 -1611 l-6 -255 -30 -61 c-35 -71 -125 -161
-216 -217 l-59 -35 -6320 189 c-3476 103 -6396 189 -6490 191 -183 2 -245 -7
-326 -48 -89 -44 -127 -110 -140 -238 -4 -50 -76 -518 -159 -1040 -82 -522
-150 -967 -150 -990 -1 -109 -54 -259 -122 -340 -44 -54 -139 -113 -218 -136
-46 -13 -206 -31 -540 -60 -412 -36 -484 -40 -550 -31 -183 27 -317 149 -347
316 -8 42 43 541 283 2775 160 1499 299 2759 307 2801 52 264 227 469 489 573
188 74 456 102 724 75z m-2246 -334 c267 -2 499 -6 515 -10 87 -22 142 -71
161 -144 11 -45 8 -90 -37 -468 -44 -377 -137 -1205 -154 -1375 l-7 -68 -352
0 c-314 0 -355 -2 -386 -18 -47 -23 -84 -81 -116 -182 -36 -114 -53 -145 -114
-210 -62 -66 -76 -91 -85 -153 l-7 -47 -72 0 c-40 0 -93 -7 -119 -16 -62 -21
-130 -95 -173 -190 -40 -85 -41 -85 -144 -54 -106 33 -157 35 -223 10 -39 -15
-66 -33 -85 -57 -24 -32 -27 -45 -27 -112 0 -66 4 -84 30 -130 17 -30 62 -87
101 -126 128 -129 262 -175 369 -126 41 18 94 65 122 108 37 56 41 35 45 -254
4 -243 7 -288 26 -355 11 -42 30 -94 40 -115 31 -60 95 -126 148 -153 44 -22
65 -25 197 -30 175 -6 177 -7 177 -106 0 -133 41 -238 107 -277 17 -10 69 -24
115 -32 46 -7 107 -22 136 -32 47 -16 52 -20 47 -43 -20 -103 -120 -924 -143
-1175 -6 -72 -16 -117 -34 -156 -64 -140 -206 -203 -401 -179 -65 8 -4707 180
-4864 180 l-41 0 -7 78 c-3 42 -15 172 -27 287 -26 262 -35 681 -18 895 24
316 92 797 185 1307 125 684 279 1275 481 1846 130 368 198 566 253 742 92
290 220 582 280 639 24 23 47 27 371 65 1277 150 2715 262 3130 244 63 -3 333
-6 600 -8z m265 -2244 l60 -6 6 -200 c4 -110 6 -201 5 -202 -1 -1 -21 23 -45
53 -24 30 -80 94 -125 142 -45 48 -97 110 -116 137 -18 28 -42 60 -53 72 l-20
23 114 -6 c63 -4 141 -9 174 -13z m-365 -47 c34 -29 124 -143 118 -149 -2 -2
-58 -1 -125 2 l-121 6 6 61 c8 92 15 106 56 106 23 0 45 -9 66 -26z m-4908
-231 l22 -22 -50 -196 c-48 -193 -49 -195 -74 -191 -14 3 -61 8 -105 12 l-80
7 -183 143 c-100 79 -181 147 -180 151 1 4 34 17 73 29 71 20 134 49 170 78
17 14 48 16 202 14 174 -3 184 -4 205 -25z m5282 -258 c21 -29 46 -57 54 -60
13 -5 14 -29 8 -181 -4 -96 -10 -182 -13 -190 -4 -11 -28 -14 -109 -14 l-104
0 0 39 c0 21 -3 53 -6 70 -5 25 -11 31 -33 31 -75 0 -181 53 -181 90 0 30 34
41 119 39 108 -4 133 9 170 83 17 32 33 79 37 104 3 24 9 44 13 44 3 0 23 -25
45 -55z m13563 -4252 c112 -52 192 -241 213 -505 20 -241 -14 -464 -95 -633
-74 -154 -156 -225 -261 -225 -95 0 -163 68 -208 210 -41 128 -51 226 -50 490
0 215 3 256 22 338 63 273 213 401 379 325z m-18985 -197 c107 -21 180 -51
232 -98 70 -61 88 -104 94 -222 l5 -99 -184 7 c-101 3 -245 9 -320 13 l-136 6
-6 86 c-4 47 -10 139 -13 204 l-7 117 131 0 c71 0 163 -6 204 -14z m7512 -153
c-26 -214 -84 -471 -139 -616 -59 -158 -152 -309 -197 -320 -49 -12 -491 -78
-653 -97 -357 -42 -614 -45 -652 -7 -14 14 -71 249 -107 447 -61 331 -50 559
27 574 12 2 198 9 412 15 703 20 1179 57 1286 100 13 5 27 10 30 10 3 1 0 -47
-7 -106z m-3126 -68 c543 -17 789 -28 805 -36 78 -42 127 -110 127 -176 0 -29
-9 -54 -32 -89 l-33 -49 -915 0 -915 0 -34 79 c-60 141 -53 243 21 279 43 22
45 22 976 -8z m6049 -205 c315 -144 508 -764 385 -1240 -89 -343 -289 -609
-489 -650 -112 -24 -266 41 -389 164 -69 69 -89 97 -132 186 -86 176 -123 370
-123 635 -1 173 16 280 62 411 59 169 135 291 242 390 148 137 295 171 444
104z"/>
</g>
</svg>
