<?xml version="1.0" standalone="no"?>
<!DOCTYPE svg PUBLIC "-//W3C//DTD SVG 20010904//EN"
 "http://www.w3.org/TR/2001/REC-SVG-20010904/DTD/svg10.dtd">
<svg version="1.0" xmlns="http://www.w3.org/2000/svg"
 width="300.000000pt" height="225.000000pt" viewBox="0 0 300.000000 225.000000"
 preserveAspectRatio="xMidYMid meet">

<g transform="translate(0.000000,225.000000) scale(0.100000,-0.100000)"
fill="#000000" stroke="none">
<path d="M1388 1603 c-27 -8 -81 -32 -120 -54 -40 -22 -108 -57 -150 -79 l-76
-39 -309 -31 c-169 -17 -312 -35 -317 -40 -7 -7 -2 -10 12 -10 29 0 39 -26 19
-48 -8 -9 -18 -32 -22 -49 -5 -26 -12 -33 -31 -33 -19 0 -24 -5 -24 -24 0 -53
13 -88 36 -97 30 -11 31 -26 2 -31 -19 -4 -15 -8 24 -26 26 -11 64 -24 85 -28
21 -4 52 -17 68 -30 59 -44 141 -43 195 3 l30 25 622 -4 623 -3 35 -25 c48
-34 134 -35 179 -2 16 12 42 22 57 22 14 0 37 9 51 20 19 14 41 20 79 20 67 0
130 26 143 60 26 65 32 122 17 164 -9 22 -20 60 -26 82 l-10 42 -93 22 c-64
16 -135 44 -237 96 -138 69 -151 74 -273 94 -159 25 -511 27 -589 3z m112
-238 c0 -16 -53 -21 -97 -9 -43 12 -23 24 37 24 47 0 60 -3 60 -15z m170 6 c0
-12 -37 -21 -87 -21 -40 0 -52 8 -36 23 10 10 123 8 123 -2z m-1165 -101 c3
-5 -3 -10 -14 -10 -12 0 -21 5 -21 10 0 6 6 10 14 10 8 0 18 -4 21 -10z m244
-45 c40 -20 75 -94 66 -137 -25 -115 -157 -150 -234 -63 -50 58 -39 144 25
194 32 25 101 28 143 6z m1522 -24 c34 -34 39 -44 39 -86 0 -61 -24 -100 -78
-127 -38 -18 -49 -19 -82 -9 -21 6 -52 27 -69 46 -26 30 -31 44 -31 87 0 45 4
54 39 89 35 35 44 39 91 39 47 0 56 -4 91 -39z"/>
<path d="M627 1209 c-18 -10 -18 -12 -1 -30 24 -27 34 -24 34 11 0 32 -5 35
-33 19z"/>
<path d="M700 1190 c0 -34 6 -37 39 -13 23 15 23 17 6 30 -30 21 -45 16 -45
-17z"/>
<path d="M577 1153 c-4 -3 -7 -16 -7 -28 0 -18 5 -21 30 -17 35 5 37 12 12 35
-20 19 -26 20 -35 10z"/>
<path d="M751 1141 c-25 -19 -22 -24 22 -35 29 -7 30 -4 21 32 -8 27 -12 27
-43 3z"/>
<path d="M598 1073 c-22 -5 -22 -13 -3 -39 15 -19 15 -19 30 0 28 37 19 51
-27 39z"/>
<path d="M720 1077 c0 -17 25 -57 34 -54 12 4 32 35 26 41 -8 7 -60 19 -60 13z"/>
<path d="M667 1033 c-17 -33 -14 -43 14 -43 26 0 32 16 16 47 l-15 27 -15 -31z"/>
<path d="M2124 1206 c-19 -15 -19 -15 1 -30 29 -22 35 -20 35 14 0 34 -7 37
-36 16z"/>
<path d="M2200 1190 c0 -34 7 -37 36 -15 19 15 19 15 0 30 -29 22 -36 19 -36
-15z"/>
<path d="M2070 1132 c0 -26 3 -28 30 -24 35 5 37 12 12 35 -27 25 -42 21 -42
-11z"/>
<path d="M2249 1141 c-25 -20 -21 -25 21 -33 17 -3 20 2 20 32 0 25 -11 25
-41 1z"/>
<path d="M2098 1073 c-22 -6 -23 -26 -3 -43 18 -15 29 -7 40 28 7 23 1 25 -37
15z"/>
<path d="M2220 1077 c0 -17 25 -57 34 -54 12 4 32 35 26 41 -8 7 -60 19 -60
13z"/>
<path d="M2165 1037 c-19 -29 -13 -47 15 -47 27 0 33 16 17 46 l-14 27 -18
-26z"/>
<path d="M1320 737 c-50 -25 -62 -145 -18 -189 15 -15 31 -18 70 -16 32 2 53
8 56 17 3 10 -4 12 -35 7 -60 -11 -87 16 -86 83 1 66 14 81 69 81 32 0 44 4
44 15 0 19 -64 20 -100 2z"/>
<path d="M1470 686 c0 -9 7 -12 20 -9 33 9 70 -5 70 -27 0 -17 -7 -20 -40 -20
-31 0 -43 -5 -56 -25 -14 -21 -15 -31 -6 -51 11 -23 17 -24 72 -22 l60 2 0 71
c0 42 -5 76 -12 83 -18 18 -108 16 -108 -2z m88 -103 c3 -17 -3 -24 -22 -29
-35 -8 -56 1 -56 25 0 38 73 41 78 4z"/>
<path d="M1640 613 c0 -66 3 -83 15 -83 11 0 15 16 17 68 3 65 4 67 31 70 47
6 33 30 -18 30 l-45 -1 0 -84z"/>
</g>
</svg>
