<?xml version="1.0" standalone="no"?>
<!DOCTYPE svg PUBLIC "-//W3C//DTD SVG 20010904//EN"
 "http://www.w3.org/TR/2001/REC-SVG-20010904/DTD/svg10.dtd">
<svg version="1.0" xmlns="http://www.w3.org/2000/svg"
 width="300.000000pt" height="225.000000pt" viewBox="0 0 300.000000 225.000000"
 preserveAspectRatio="xMidYMid meet">

<g transform="translate(0.000000,225.000000) scale(0.100000,-0.100000)"
fill="#000000" stroke="none">
<path d="M1997 1852 c-14 -15 -17 -42 -17 -160 0 -83 -4 -143 -10 -147 -6 -4
-10 41 -10 129 l0 135 -34 7 c-19 3 -176 4 -348 2 l-314 -3 -197 -115 c-108
-63 -197 -121 -197 -127 0 -9 -16 -13 -45 -13 -24 0 -91 -6 -147 -14 -57 -8
-147 -20 -202 -27 -94 -11 -99 -13 -117 -43 -10 -17 -19 -33 -19 -36 0 -3 22
-3 49 -2 l48 4 -8 -51 c-4 -28 -11 -55 -14 -61 -3 -5 -28 -10 -56 -10 l-49 0
0 -105 c0 -87 3 -105 15 -105 8 0 15 -6 15 -14 0 -9 17 -16 50 -20 27 -4 52
-11 55 -16 3 -6 18 -10 33 -10 22 0 31 -8 45 -42 24 -55 49 -86 95 -117 31
-21 49 -25 107 -25 58 -1 77 4 105 24 49 33 66 52 87 96 l18 39 527 3 527 2
20 -43 c34 -75 96 -117 182 -122 90 -6 169 43 206 126 15 36 20 39 55 39 21 0
68 13 105 30 36 16 76 30 87 30 12 0 36 15 54 33 30 31 32 38 32 103 0 62 -3
73 -25 94 -23 22 -25 30 -25 120 l0 98 -31 6 c-17 3 -65 6 -106 6 -80 0 -86 2
-368 158 l-90 50 -3 43 c-4 64 -49 91 -85 51z m236 -230 l117 -67 -122 -3
c-67 -1 -128 0 -135 2 -9 4 -13 27 -13 77 0 85 -12 85 153 -9z m-1463 -392
c20 -5 51 -26 70 -45 30 -31 34 -42 38 -98 2 -49 -1 -69 -17 -95 -30 -47 -77
-72 -136 -72 -142 0 -209 156 -113 265 42 48 94 63 158 45z m1500 -12 c57 -30
82 -65 88 -126 8 -93 -47 -161 -139 -170 -60 -6 -100 10 -139 54 -87 100 -13
257 125 263 12 1 41 -9 65 -21z"/>
<path d="M698 1223 c-22 -6 -23 -21 -3 -60 28 -57 39 -58 78 -11 28 33 33 46
24 54 -14 14 -74 24 -99 17z"/>
<path d="M600 1158 c-11 -18 -20 -46 -20 -62 0 -27 1 -28 38 -22 83 15 84 17
50 76 -28 48 -42 50 -68 8z"/>
<path d="M791 1123 c-19 -23 -27 -41 -22 -46 15 -15 89 -46 95 -39 10 9 7 82
-4 103 -16 28 -35 23 -69 -18z"/>
<path d="M714 1085 c-9 -23 10 -40 25 -22 9 11 8 17 -4 27 -12 10 -16 9 -21
-5z"/>
<path d="M625 1041 c-41 -9 -42 -32 -4 -69 54 -52 79 -38 79 46 0 35 -9 37
-75 23z"/>
<path d="M736 1024 c-3 -9 -6 -33 -6 -55 0 -35 3 -39 24 -39 27 0 86 44 86 64
0 13 -61 46 -84 46 -8 0 -17 -7 -20 -16z"/>
<path d="M2172 1220 c-22 -9 -22 -10 -6 -42 9 -18 23 -41 32 -51 14 -16 17
-15 49 20 18 21 33 43 33 50 0 7 -17 17 -37 22 -44 13 -41 13 -71 1z"/>
<path d="M2086 1171 c-21 -23 -39 -82 -28 -93 8 -8 98 5 109 15 7 7 -45 97
-56 97 -4 0 -15 -8 -25 -19z"/>
<path d="M2271 1125 c-17 -20 -31 -39 -31 -44 0 -11 97 -51 104 -43 10 9 7 70
-6 97 -15 34 -30 32 -67 -10z"/>
<path d="M2185 1090 c-10 -16 16 -43 28 -31 11 11 2 41 -12 41 -5 0 -13 -5
-16 -10z"/>
<path d="M2125 1045 c-5 -2 -22 -6 -37 -9 -36 -8 -35 -18 7 -61 47 -47 71 -46
79 3 10 63 8 72 -16 71 -13 0 -27 -2 -33 -4z"/>
<path d="M2210 1023 c0 -10 -3 -36 -7 -57 l-6 -39 38 6 c35 6 85 40 85 59 0
10 -74 48 -95 48 -8 0 -15 -8 -15 -17z"/>
<path d="M1150 745 c0 -8 7 -15 15 -15 8 0 15 7 15 15 0 8 -7 15 -15 15 -8 0
-15 -7 -15 -15z"/>
<path d="M1390 645 c0 -89 3 -116 13 -113 6 3 13 19 15 36 4 41 15 40 49 -3
15 -19 36 -35 46 -35 15 0 12 8 -18 44 l-36 44 31 35 c33 39 36 47 16 47 -7 0
-26 -16 -40 -35 -15 -19 -31 -35 -36 -35 -5 0 -10 28 -12 62 -2 38 -8 63 -15
66 -10 3 -13 -24 -13 -113z"/>
<path d="M955 738 c-11 -29 -1 -201 13 -206 8 -2 12 8 12 32 0 36 0 36 43 36
62 0 87 21 87 74 0 55 -14 66 -89 73 -48 5 -62 3 -66 -9z m113 -27 c8 -5 12
-22 10 -42 -3 -33 -5 -34 -50 -37 l-48 -3 0 45 0 46 38 0 c20 0 43 -4 50 -9z"/>
<path d="M1150 615 c0 -69 3 -85 15 -85 12 0 15 16 15 85 0 69 -3 85 -15 85
-12 0 -15 -16 -15 -85z"/>
<path d="M1246 684 c-32 -31 -33 -118 -1 -144 18 -15 97 -9 103 8 3 10 -4 12
-30 7 -44 -8 -68 13 -68 60 0 43 22 65 66 65 21 0 33 4 29 10 -10 16 -82 12
-99 -6z"/>
<path d="M1710 634 c0 -95 8 -105 80 -102 l60 2 0 83 c0 49 -4 83 -10 83 -6 0
-10 -28 -10 -65 0 -61 -2 -66 -26 -77 -43 -20 -59 -1 -62 76 -2 50 -6 66 -17
66 -12 0 -15 -15 -15 -66z"/>
<path d="M1910 588 c0 -65 4 -108 10 -108 6 0 10 11 10 25 0 22 4 25 39 25 57
0 70 8 81 50 7 28 7 48 -2 76 l-13 39 -63 1 -62 1 0 -109z m94 86 c24 -9 31
-69 12 -99 -16 -25 -39 -31 -70 -19 -24 9 -22 99 2 113 20 12 34 13 56 5z"/>
<path d="M1560 640 c0 -5 25 -10 55 -10 30 0 55 5 55 10 0 6 -25 10 -55 10
-30 0 -55 -4 -55 -10z"/>
</g>
</svg>
