<?xml version="1.0" standalone="no"?>
<!DOCTYPE svg PUBLIC "-//W3C//DTD SVG 20010904//EN"
 "http://www.w3.org/TR/2001/REC-SVG-20010904/DTD/svg10.dtd">
<svg version="1.0" xmlns="http://www.w3.org/2000/svg"
 width="512.000000pt" height="512.000000pt" viewBox="0 0 512.000000 512.000000"
 preserveAspectRatio="xMidYMid meet">

<g transform="translate(0.000000,512.000000) scale(0.100000,-0.100000)"
fill="#000000" stroke="none">
<path d="M1873 3750 c-221 -32 -359 -141 -705 -555 -239 -285 -232 -279 -343
-295 -245 -33 -487 -92 -562 -136 -84 -49 -124 -173 -138 -427 l-7 -136 -36
-18 c-60 -30 -77 -71 -77 -188 0 -117 28 -220 77 -279 l29 -36 156 0 155 0 -8
32 c-12 58 -6 250 11 313 53 203 199 348 400 400 76 19 221 19 305 -1 197 -46
359 -189 421 -372 19 -53 23 -90 24 -177 0 -60 -3 -129 -8 -152 l-7 -43 793 0
793 0 -13 78 c-53 293 115 565 407 662 91 30 252 38 344 16 185 -44 321 -171
383 -359 23 -72 27 -100 29 -237 l3 -155 360 2 c306 1 364 4 390 17 45 24 64
69 65 151 l1 70 -30 3 c-16 1 -40 5 -52 7 l-21 5 5 277 c3 153 2 349 -2 436
l-7 157 -1259 0 -1259 0 0 393 c0 239 -4 407 -10 429 -14 48 -55 97 -97 114
-36 15 -413 18 -510 4z m395 -562 l2 -378 -516 0 -517 0 6 43 c7 49 76 186
154 303 144 217 325 378 455 403 24 5 126 8 228 8 l185 -2 3 -377z"/>
<path d="M829 2257 c-193 -70 -309 -234 -309 -437 0 -207 121 -373 320 -440
53 -18 82 -21 160 -18 85 3 104 8 173 40 103 49 175 122 225 225 36 76 37 81
37 193 0 112 -1 117 -37 193 -49 103 -122 176 -224 224 -69 33 -86 37 -178 40
-87 3 -110 1 -167 -20z m218 -222 c68 -20 128 -80 148 -148 19 -63 19 -71 0
-134 -32 -109 -150 -179 -260 -154 -68 15 -118 51 -152 109 -23 38 -28 59 -28
112 0 106 58 184 158 216 56 17 74 17 134 -1z"/>
<path d="M3608 2261 c-220 -71 -358 -292 -320 -513 39 -227 228 -388 457 -388
132 0 242 47 333 144 98 103 146 251 124 382 -22 131 -113 269 -220 331 -106
63 -259 80 -374 44z m240 -240 c76 -39 122 -115 122 -201 0 -128 -97 -224
-225 -224 -129 0 -225 95 -225 224 0 170 176 278 328 201z"/>
</g>
</svg>
