<?xml version="1.0" standalone="no"?>
<!DOCTYPE svg PUBLIC "-//W3C//DTD SVG 20010904//EN"
 "http://www.w3.org/TR/2001/REC-SVG-20010904/DTD/svg10.dtd">
<svg version="1.0" xmlns="http://www.w3.org/2000/svg"
 width="512.000000pt" height="512.000000pt" viewBox="0 0 512.000000 512.000000"
 preserveAspectRatio="xMidYMid meet">

<g transform="translate(0.000000,512.000000) scale(0.100000,-0.100000)"
fill="#000000" stroke="none">
<path d="M2840 3279 c-317 -37 -734 -182 -1052 -366 l-87 -51 -92 14 c-459 68
-1067 24 -1330 -97 -76 -35 -139 -95 -139 -132 0 -14 -15 -32 -40 -51 -22 -16
-53 -43 -69 -60 l-31 -31 36 -70 c81 -159 207 -306 299 -349 59 -28 115 -32
143 -9 l24 18 -18 85 c-21 106 -15 230 16 313 97 259 428 390 724 287 265 -91
378 -360 276 -656 -11 -31 -20 -59 -20 -61 0 -1 471 -3 1048 -3 l1047 0 1 128
c3 224 62 379 194 513 308 311 772 169 885 -271 9 -36 21 -118 25 -183 6 -78
14 -126 24 -142 43 -65 200 -31 296 65 55 55 87 160 70 228 -14 59 -47 116
-94 164 l-36 37 90 107 c50 59 89 112 87 118 -1 6 -28 24 -59 39 -74 37 -228
68 -569 111 -303 39 -399 62 -659 159 -353 131 -687 181 -990 146z m333 -221
c-30 -79 -59 -152 -63 -163 -11 -29 -85 -94 -126 -111 -27 -11 -128 -14 -546
-14 l-513 1 60 56 c164 155 503 319 725 352 119 18 125 18 327 20 l191 1 -55
-142z m298 113 c47 -11 103 -27 125 -36 85 -35 107 -90 57 -137 -46 -42 -295
-186 -335 -193 -53 -10 -85 0 -92 29 -12 47 71 285 117 334 25 26 20 26 128 3z"/>
<path d="M865 2706 c-201 -64 -324 -244 -313 -460 4 -73 10 -95 42 -160 113
-230 381 -321 608 -205 54 28 143 113 175 167 145 246 29 559 -241 652 -69 23
-206 26 -271 6z m230 -248 c66 -35 105 -104 105 -185 0 -113 -107 -212 -219
-201 -111 11 -182 83 -189 192 -4 67 9 108 52 154 60 67 168 83 251 40z"/>
<path d="M4005 2702 c-120 -42 -214 -126 -268 -240 -27 -57 -32 -81 -35 -164
-5 -121 19 -201 87 -291 78 -103 192 -164 326 -174 264 -20 494 212 472 477
-15 182 -139 338 -309 392 -77 23 -205 24 -273 0z m246 -251 c117 -74 132
-232 30 -324 -123 -111 -312 -47 -342 116 -15 86 38 188 116 223 17 7 57 13
91 14 49 0 68 -5 105 -29z"/>
</g>
</svg>
